<?xml version="1.0" encoding="UTF-8" standalone="no"?>
<!-- Created with Inkscape (http://www.inkscape.org/) -->

<svg
   xmlns:dc="http://purl.org/dc/elements/1.1/"
   xmlns:cc="http://creativecommons.org/ns#"
   xmlns:rdf="http://www.w3.org/1999/02/22-rdf-syntax-ns#"
   xmlns:svg="http://www.w3.org/2000/svg"
   xmlns="http://www.w3.org/2000/svg"
   xmlns:sodipodi="http://sodipodi.sourceforge.net/DTD/sodipodi-0.dtd"
   xmlns:inkscape="http://www.inkscape.org/namespaces/inkscape"
   width="210.10439mm"
   height="104.02591mm"
   viewBox="0 0 210.10439 104.02591"
   version="1.1"
   id="svg8"
   sodipodi:docname="bottom_screen.svg"
   inkscape:version="0.92.4 (5da689c313, 2019-01-14)">
  <defs
     id="defs2" />
  <sodipodi:namedview
     id="base"
     pagecolor="#ffffff"
     bordercolor="#666666"
     borderopacity="1.0"
     inkscape:pageopacity="0.0"
     inkscape:pageshadow="2"
     inkscape:zoom="0.49497475"
     inkscape:cx="707.31273"
     inkscape:cy="444.68053"
     inkscape:document-units="mm"
     inkscape:current-layer="layer1"
     showgrid="false"
     inkscape:window-width="1920"
     inkscape:window-height="1057"
     inkscape:window-x="1912"
     inkscape:window-y="-8"
     inkscape:window-maximized="1" />
  <metadata
     id="metadata5">
    <rdf:RDF>
      <cc:Work
         rdf:about="">
        <dc:format>image/svg+xml</dc:format>
        <dc:type
           rdf:resource="http://purl.org/dc/dcmitype/StillImage" />
        <dc:title></dc:title>
      </cc:Work>
    </rdf:RDF>
  </metadata>
  <g
     inkscape:label="Calque 1"
     inkscape:groupmode="layer"
     id="layer1"
     transform="translate(-0.56704311,-193.10668)">
    <path
       style="fill:none;stroke:#000000;stroke-width:0.26458332px;stroke-linecap:butt;stroke-linejoin:miter;stroke-opacity:1"
       d="m 211.05246,192.06436 c -32.48069,37.39055 -68.21883,43.56788 -80.87277,46.5943 -2.14586,0.51321 -5.2164,0.73656 -5.2164,0.73656 -46.071259,4.40967 -80.880905,19.16452 -80.880905,19.16452 -33.576996,14.83559 -43.8452363,38.55357 -43.8452363,38.55357 l 209.7286213,0.26465 z"
       id="path3719"
       inkscape:connector-curvature="0"
       sodipodi:nodetypes="csccccc" />
    <path
       style="fill:#ffffff;stroke-width:1.01015258"
       d="M 215.57908,1122.2632 2.1431551,1122.0059 4.8679718,1117.21 c 5.9604102,-10.4907 11.1643592,-18.4231 19.0511412,-29.0395 37.050004,-49.8732 96.671827,-93.15347 161.144057,-116.97663 88.33424,-32.64041 190.17614,-55.85055 286.88333,-65.38177 12.94603,-1.27592 26.06208,-3.91038 52.47529,-10.54006 86.78387,-21.78261 157.4108,-58.81351 223.02202,-116.93423 6.23832,-5.52613 19.76174,-18.69613 30.05203,-29.26666 l 18.70962,-19.21914 0.0319,16.52468 c 0.0706,36.52858 -3.20783,364.44991 -3.7024,370.33061 l -0.53095,6.3135 -181.49451,-0.2502 c -99.822,-0.1376 -277.5407,-0.366 -394.93046,-0.5074 z"
       id="path3721"
       inkscape:connector-curvature="0"
       transform="scale(0.26458333)" />
  </g>
</svg>
